<svg xmlns="http://www.w3.org/2000/svg" viewBox="0 0 40 40" width="100px" height="100px"><path fill="#ffeea3" d="M28,37.5c-0.4,0-0.777-0.156-1.061-0.439l-5.071-5.524c-0.145-0.145-0.249-0.297-0.324-0.466 l-2.898-8.42c-0.179-0.407-0.189-0.814-0.045-1.188c0.144-0.374,0.424-0.669,0.79-0.832c0.193-0.086,0.398-0.13,0.608-0.13 c0.592,0,1.13,0.35,1.371,0.891l3.195,8.879l4.488,4.663c0.29,0.29,0.446,0.667,0.446,1.067s-0.156,0.777-0.439,1.061 S28.4,37.5,28,37.5z"/><path fill="#ba9b48" d="M19.999,21c0.384,0,0.735,0.222,0.901,0.567l3.158,8.772l0.072,0.201l0.148,0.154l4.428,4.6 C28.896,35.482,29,35.733,29,36s-0.104,0.518-0.293,0.707C28.518,36.896,28.267,37,28,37s-0.518-0.104-0.677-0.262l-5.116-5.571 c-0.078-0.077-0.142-0.167-0.19-0.267l-2.898-8.413l-0.014-0.041l-0.018-0.04c-0.109-0.244-0.116-0.516-0.02-0.765 c0.096-0.249,0.283-0.446,0.526-0.555C19.723,21.029,19.86,21,19.999,21 M19.999,20c-0.271,0-0.547,0.056-0.812,0.173 c-1.009,0.449-1.464,1.63-1.015,2.64l2.914,8.461c0.1,0.224,0.239,0.428,0.413,0.602l5.086,5.539C26.977,37.805,27.488,38,28,38 s1.023-0.195,1.414-0.586c0.781-0.781,0.781-2.047,0-2.828L25,30l-3.173-8.813C21.495,20.442,20.765,20,19.999,20L19.999,20z"/><path fill="#ffeea3" d="M18.999,38.5c-0.665,0-1.258-0.448-1.441-1.088l-2-7C15.52,30.277,15.5,30.138,15.5,30v-6 c0-0.827,0.673-1.5,1.5-1.5s1.5,0.673,1.5,1.5v5.79l1.942,6.798c0.11,0.385,0.063,0.791-0.131,1.141 c-0.195,0.35-0.514,0.604-0.899,0.713C19.277,38.481,19.139,38.5,18.999,38.5z"/><path fill="#ba9b48" d="M17,23c0.551,0,1,0.449,1,1v5.72v0.14l0.038,0.135l1.923,6.731c0.073,0.257,0.042,0.527-0.087,0.76 c-0.13,0.233-0.342,0.402-0.6,0.476C19.184,37.987,19.092,38,18.999,38c-0.443,0-0.838-0.298-0.96-0.726l-2-6.999 C16.013,30.185,16,30.092,16,30v-6C16,23.449,16.449,23,17,23 M17,22c-1.104,0-2,0.896-2,2v6c0,0.186,0.026,0.371,0.077,0.549l2,7 C17.328,38.428,18.129,39,18.999,39c0.182,0,0.367-0.025,0.551-0.078c1.062-0.303,1.677-1.41,1.373-2.472L19,29.72V24 C19,22.896,18.104,22,17,22L17,22z"/><path fill="#c74343" d="M29.097,3c0.746,0,1.838,0.662,2.482,1.928c0.425,0.836,0.538,1.718,0.302,2.358 c-0.116,0.315-0.305,0.529-0.562,0.636C31.194,7.974,31.054,8,30.903,8c-0.746,0-1.838-0.662-2.482-1.928 c-0.425-0.836-0.538-1.718-0.302-2.358c0.116-0.315,0.305-0.529,0.562-0.636C28.806,3.026,28.946,3,29.097,3 M29.097,2 c-0.277,0-0.547,0.05-0.799,0.154c-1.364,0.566-1.708,2.523-0.768,4.371C28.296,8.031,29.679,9,30.903,9 c0.277,0,0.547-0.05,0.799-0.154c1.364-0.566,1.708-2.523,0.768-4.371C31.704,2.969,30.321,2,29.097,2L29.097,2z"/><path fill="none" stroke="#c74343" stroke-miterlimit="10" d="M31.75 8.25L35.917 14.083"/><path fill="#ffeea3" d="M19 4.5A2.5 2.5 0 1 0 19 9.5A2.5 2.5 0 1 0 19 4.5Z"/><path fill="#ba9b48" d="M19,5c1.103,0,2,0.897,2,2s-0.897,2-2,2s-2-0.897-2-2S17.897,5,19,5 M19,4c-1.657,0-3,1.343-3,3 s1.343,3,3,3s3-1.343,3-3S20.657,4,19,4L19,4z"/><path fill="#f78f8f" d="M15.5 29.5L15.5 20.5 22.5 20.5 22.5 21.812 19.022 25.786 18.559 29.5z"/><path fill="#c74343" d="M22,21v0.624l-3.253,3.717l-0.202,0.231l-0.038,0.304L18.117,29H16v-8H22 M23,20h-8v10h4l0.5-4 l3.5-4V20L23,20z"/><g><path fill="#f78f8f" d="M20.962 29.5L19.425 25.718 15.5 21.793 15.5 20.5 22.5 20.5 22.5 22.062 24.359 29.5z"/><path fill="#c74343" d="M22,21v1v0.123l0.03,0.119L23.719,29h-2.421l-1.372-3.376l-0.076-0.188l-0.143-0.143L16,21.586V21 H22 M23,20h-8v2l4,4l1.625,4H25l-2-8V20L23,20z"/></g><g><path fill="#839cb2" d="M7.158,3.526C6.5,3.324,6.5,3.113,6.5,3c0-0.15,0-0.306,0.658-0.526L9.5,1.694v2.612L7.158,3.526z"/><path fill="#66798f" d="M9,2.387v1.225L7.292,3.044C7.245,3.029,7.203,3.015,7.167,3.002 c0.042-0.016,0.091-0.034,0.149-0.053L9,2.387 M10,1L7,2C6.391,2.203,6,2.448,6,3c0,0.552,0.438,0.828,1,1l3,1V1L10,1z"/></g><g><path fill="#ffeea3" d="M15.5,21.5v-7.222L5.244,8.295C4.898,8.094,4.651,7.769,4.55,7.382 C4.447,6.994,4.502,6.59,4.704,6.244C4.973,5.785,5.47,5.499,6.001,5.499c0.264,0,0.524,0.071,0.755,0.206L16.867,11.5H21 c0.192,0,0.38,0.036,0.558,0.107l5.524,2.827l7.554-1.889C34.755,12.515,34.878,12.5,35,12.5c0.689,0,1.288,0.467,1.455,1.137 c0.2,0.802-0.289,1.618-1.091,1.819l-8,2C27.244,17.485,27.122,17.5,27,17.5c-0.191,0-0.379-0.036-0.558-0.107L22.5,15.394V21.5 H15.5z"/><path fill="#ba9b48" d="M6.001,5.999c0.178,0,0.347,0.046,0.509,0.141l9.992,5.728L16.734,12H17h4 c0.116,0,0.228,0.019,0.336,0.058l5.352,2.735l0.334,0.171l0.364-0.091l7.371-1.843C34.837,13.01,34.918,13,35,13 c0.46,0,0.859,0.312,0.971,0.758c0.134,0.535-0.193,1.079-0.727,1.213l-7.997,1.999C27.164,16.99,27.081,17,27,17 c-0.116,0-0.229-0.02-0.338-0.059l-3.211-1.626L22,14.58v1.627V21h-6v-6.435v-0.574l-0.496-0.289L5.496,7.864 C5.265,7.729,5.101,7.513,5.033,7.254C4.965,6.996,5.002,6.727,5.136,6.497C5.318,6.185,5.642,5.999,6.001,5.999 M6.001,4.999 c-0.688,0-1.356,0.356-1.729,0.993c-0.557,0.954-0.234,2.179,0.72,2.735L15,14.565V22h8v-5.792l3.257,1.649 C26.495,17.952,26.747,18,27,18c0.162,0,0.325-0.02,0.485-0.06l8-2c1.071-0.268,1.723-1.354,1.455-2.425 C36.713,12.605,35.895,12,35,12c-0.16,0-0.323,0.019-0.485,0.06l-7.372,1.843l-5.399-2.76C21.507,11.048,21.255,11,21,11h-4 L7.008,5.272C6.69,5.087,6.343,4.999,6.001,4.999L6.001,4.999z"/></g><g><path fill="#8bb7f0" d="M15.5,21.5V10.716l1.367,0.784H21c0.192,0,0.38,0.036,0.557,0.107l0.943,0.484V21.5H15.5z"/><path fill="#4e7ab5" d="M16,11.579l0.503,0.288L16.734,12H17h4c0.116,0,0.228,0.019,0.336,0.058L22,12.397v1.697v2.114V21 h-6v-6.435V11.579 M15,9.854v4.712V22h8v-5.792v-2.114v-2.309l-1.257-0.642C21.507,11.048,21.255,11,21,11h-4L15,9.854L15,9.854z"/></g></svg>