<svg xmlns="http://www.w3.org/2000/svg" width="100" height="100" viewBox="0 0 128 128"><path fill="#FFF" d="M64 19A45 45 0 1 0 64 109A45 45 0 1 0 64 19Z"/><path fill="#CCC" d="M95.8,32.2c-1.2-1.2-2.4-2.3-3.7-3.3c14.1,17.7-11,47.6-13.3,49.9c-3.6,3.6-32.2,27.5-49.9,13.3c1,1.3,2.1,2.5,3.3,3.7c17.6,17.6,46.1,17.6,63.6,0C113.4,78.2,113.4,49.8,95.8,32.2z"/><path fill="none" stroke="#F3797B" stroke-linecap="round" stroke-linejoin="round" stroke-miterlimit="10" stroke-width="6" d="M37.2 40.2C41.5 47.1 44 55.3 44 64c0 11.9-4.6 22.8-12.2 30.8M95.3 93.8C88.3 85.8 84 75.4 84 64c0-11.7 4.5-22.4 11.9-30.4M81.4 79.5L92.5 80.5M79 61L89 66M83.5 43L91 51.3M46.6 79.5L35.5 80.5M49 61L39 66M44.5 43L37 51.3"/><path fill="none" stroke="#454B54" stroke-linecap="round" stroke-linejoin="round" stroke-miterlimit="10" stroke-width="6" d="M64 19A45 45 0 1 0 64 109A45 45 0 1 0 64 19Z"/></svg>