<svg xmlns="http://www.w3.org/2000/svg" viewBox="0 0 128 128" width="100px" height="100px"><path fill="#F4A190" d="M64 19A45 45 0 1 0 64 109A45 45 0 1 0 64 19Z"/><path fill="#F9B2A7" d="M32.2,32.2c-17.6,17.6-17.6,46.1,0,63.6C41,104.6,52.5,109,64,109V19C52.5,19,41,23.4,32.2,32.2z"/><path fill="#FFF" d="M39.3,39.3c16.4-16.4,42.2-17.5,59.9-3.3c-1-1.3-2.1-2.5-3.3-3.7c-17.6-17.6-46.1-17.6-63.6,0c-17.6,17.6-17.6,46.1,0,63.6c1.2,1.2,2.4,2.3,3.7,3.3C21.8,81.5,22.9,55.6,39.3,39.3z"/><path fill="#D67F83" d="M95.8,32.2c-1.2-1.2-2.4-2.3-3.7-3.3c14.1,17.7-11,47.6-13.3,49.9c-3.6,3.6-32.2,27.5-49.9,13.3c1,1.3,2.1,2.5,3.3,3.7c17.6,17.6,46.1,17.6,63.6,0C113.4,78.2,113.4,49.8,95.8,32.2z"/><path fill="none" stroke="#454B54" stroke-linecap="round" stroke-linejoin="round" stroke-miterlimit="10" stroke-width="6" d="M37.2 40.2C41.5 47.1 44 55.3 44 64c0 11.9-4.6 22.8-12.2 30.8M95.3 93.8C88.3 85.8 84 75.4 84 64c0-11.7 4.5-22.4 11.9-30.4"/><path fill="none" stroke="#454B54" stroke-linecap="round" stroke-linejoin="round" stroke-miterlimit="10" stroke-width="6" d="M64 19A45 45 0 1 0 64 109 45 45 0 1 0 64 19zM64 29L64 109M29 64L109 64"/></svg>