<svg xmlns="http://www.w3.org/2000/svg" viewBox="0 0 128 128" width="100px" height="100px"><path fill="#fcca3d" d="M64 19A45 45 0 1 0 64 109A45 45 0 1 0 64 19Z" transform="rotate(-45.001 64 64.001)"/><path fill="#fff" d="M29.7,48.3c-0.5,0-1-0.1-1.4-0.4c-1.5-0.8-2-2.6-1.2-4.1c1.9-3.5,3.3-8.7,6.2-11.6c5.2-5.2,12.7-7,19.8-8.9 c1.6-0.4,3.2,0.5,3.7,2.1c0.4,1.6-0.5,3.2-2.1,3.7c-6,1.6-11.6,4.8-16.1,9.3c-2.5,2.5-4.5,5.2-6.2,8.2 C31.8,47.8,30.8,48.3,29.7,48.3z"/><path fill="#ff6144" d="M64,106c-1.7,0-3-1.3-3-3s1.3-3,3-3c9.6,0,18.7-3.7,25.5-10.5C96.3,82.7,100,73.6,100,64c0-1.7,1.3-3,3-3 s3,1.3,3,3c0,11.2-2.4,22.8-10.3,30.7C87.8,102.6,75.2,106,64,106z"/><path fill="#444b54" d="M64,112c-12.8,0-24.9-5-33.9-14.1C21,88.9,16,76.8,16,64s5-24.9,14.1-33.9C39.1,21,51.2,16,64,16 s24.9,5,33.9,14.1C107,39.1,112,51.2,112,64s-5,24.9-14.1,33.9v0c0,0,0,0,0,0C88.9,107,76.8,112,64,112z M64,22 c-11.2,0-21.8,4.4-29.7,12.3C26.4,42.2,22,52.8,22,64s4.4,21.8,12.3,29.7C42.2,101.6,52.8,106,64,106s21.8-4.4,29.7-12.3 c0,0,0,0,0,0C101.6,85.8,106,75.2,106,64s-4.4-21.8-12.3-29.7C85.8,26.4,75.2,22,64,22z"/><path fill="#fff" d="M54 44A20 20 0 1 0 54 84A20 20 0 1 0 54 44Z" transform="rotate(-45.001 54 64)"/><path fill="#444b54" d="M50,77c-0.5,0-1.1-0.1-1.6-0.4c-1.4-0.9-1.9-2.7-1-4.1L54.6,60H48c-1.7,0-3-1.3-3-3s1.3-3,3-3h12 c1.1,0,2.1,0.6,2.6,1.5s0.5,2.1-0.1,3l-10,17C52,76.5,51,77,50,77z"/><path fill="#fff" d="M25.1 60.6A3 3 0 1 0 25.1 66.6A3 3 0 1 0 25.1 60.6Z"/></svg>