<svg xmlns="http://www.w3.org/2000/svg" width="100" height="100" viewBox="0 0 128 128"><path fill="#FFF" d="M93.8,119h18c2.2,0,4.2-1.5,4.8-3.6l0.1-0.2c5.8-20.1,4.1-41.7-4.9-60.6l-2.2-4.6c-1.8-3.9-2.4-8.3-1.5-12.5l3.5-17.7c1.1-5.6-3.2-10.8-8.8-10.8h0c-5.7,0-10,5.2-8.8,10.8l3.5,17.7c0.8,4.2,0.3,8.6-1.5,12.5l-2.2,4.6c-9,18.9-10.7,40.5-4.9,60.6l0,0C89.4,117.5,91.4,119,93.8,119z"/><path fill="#E1E6EA" d="M111.7,54.6l-2.2-4.6c-1.8-3.9-2.4-8.3-1.5-12.5l3.5-17.7c1.1-5.6-3.2-10.8-8.8-10.8c-1.3,0-2.4,0.3-3.5,0.7c3.8,1.6,8.2,5.7,7.3,10.1L103,37.5c-0.4,2-0.9,4-1.2,6.1c-1.3-2-2.8-3.9-4.4-5.7c0.8,4.1,0.2,8.4-1.6,12.2l-2.2,4.6c-9,18.9-10.7,40.5-4.9,60.6c0.2,0.8,0.6,1.5,1.2,2.1c1.7-1.4,3.4-2.8,5-4.4c8.5-8.5,13.6-19.1,15.4-30.2c-0.2,10.8-2.6,21.9-5.7,32.5l0.9,0.2c-0.6,2.1-2.6,3.6-4.8,3.6h11c2.2,0,4.2-1.5,4.8-3.6l0.1-0.2C122.4,95.1,120.7,73.6,111.7,54.6z"/><path fill="none" stroke="#454B54" stroke-linecap="round" stroke-linejoin="round" stroke-miterlimit="10" stroke-width="6" d="M88.7 115.2c.7 2.2 2.7 3.8 5 3.8h18c2.2 0 4.2-1.5 4.8-3.6l.1-.2c5.8-20.1 4.1-41.7-4.9-60.6l-2.2-4.6c-1.8-3.9-2.4-8.3-1.5-12.5l3.5-17.7c1.1-5.6-3.2-10.8-8.8-10.8h0c-5.7 0-10 5.2-8.8 10.8l3.9 21.3M106.6 41.7L97.7 41.7"/><path fill="#B3E1EA" d="M55 29A45 45 0 1 0 55 119A45 45 0 1 0 55 29Z"/><path fill="none" stroke="#FDFDFE" stroke-linecap="round" stroke-linejoin="round" stroke-miterlimit="10" stroke-width="6" d="M29.3,49.3c3.3-3.3,7.2-5.9,11.3-7.6"/><path fill="#22B6C6" d="M31.5 62A4 4 0 1 0 31.5 70 4 4 0 1 0 31.5 62zM51.5 62A4 4 0 1 0 51.5 70 4 4 0 1 0 51.5 62zM41.5 77A4 4 0 1 0 41.5 85 4 4 0 1 0 41.5 77z"/><path fill="#22B6C6" d="M86.8,42.2c-1.2-1.2-2.4-2.3-3.7-3.3c14.1,17.7-11,47.6-13.3,49.9c-3.6,3.6-32.2,27.5-49.9,13.3c1,1.3,2.1,2.5,3.3,3.7c17.6,17.6,46.1,17.6,63.6,0C104.4,88.2,104.4,59.8,86.8,42.2z"/><path fill="none" stroke="#454B54" stroke-linecap="round" stroke-linejoin="round" stroke-miterlimit="10" stroke-width="6" d="M55 29A45 45 0 1 0 55 119A45 45 0 1 0 55 29Z"/></svg>