<svg xmlns="http://www.w3.org/2000/svg" width="100" height="100" viewBox="0 0 128 128"><path fill="#F4A190" d="M84.4,28.6L84.4,28.6c12.3,43.1-27.6,83-70.7,70.7l0,0l0,0C1.3,56.2,41.2,16.3,84.4,28.6L84.4,28.6z"/><path fill="#E59588" d="M84.4,28.6L84.4,28.6c12.3,43.1-27.6,83-70.7,70.7l0,0l0,0L84.4,28.6L84.4,28.6z"/><path fill="#D67F83" d="M84.4,28.6c-13.8-4-27.3-2.5-38.9,2.6c8.9-2,18.5-1.9,28.3,0.9l0,0v0c8.4,29.3-7.4,57.1-31.8,68.1C72.2,93.4,93.9,62,84.4,28.6L84.4,28.6L84.4,28.6z"/><path fill="#FFF" d="M12.5,72.1c-1.8,8.6-1.6,17.9,1.1,27.3l0,0h0c9.4,2.7,18.7,2.9,27.3,1.1L12.5,72.1z"/><path fill="#EEEDEE" d="M26.7,86.3L13.6,99.4l0,0h0c9.4,2.7,18.7,2.9,27.3,1.1L26.7,86.3z"/><path fill="#FFF" d="M57.1,27.5l28.4,28.4c1.8-8.6,1.6-17.9-1.1-27.3v0l0,0C74.9,26,65.7,25.8,57.1,27.5z"/><path fill="#EEEDEE" d="M71.3,41.7l13.1-13.1l0,0v0c2.7,9.4,2.9,18.7,1.1,27.3L71.3,41.7z"/><path fill="#DBD7DD" d="M84.4,28.6c-1.1-0.3-2.1-0.6-3.2-0.8c-0.3-0.1-0.6-0.1-0.9-0.2c-0.8-0.2-1.6-0.3-2.4-0.5c-0.3,0-0.6-0.1-0.9-0.1c-1-0.2-2.1-0.3-3.1-0.4c-0.2,0-2.9-0.1-2.7,0c0.5,0,2.5,5.6,2.5,5.6l0,0v0c1.4,4.8,2.1,9.6,2.2,14.3l9.5,9.5c0,0,0,0,0,0c0.2-1,0.4-2,0.5-3.1c0-0.3,0.1-0.6,0.1-0.9c0.1-0.8,0.2-1.5,0.3-2.3c0-0.4,0.1-0.8,0.1-1.2c0-0.7,0.1-1.3,0.1-2c0-0.4,0-0.9,0-1.3c0-0.7,0-1.3,0-2c0-0.4,0-0.9,0-1.3c0-0.7-0.1-1.3-0.1-2c0-0.4-0.1-0.9-0.1-1.3c-0.1-0.7-0.2-1.4-0.3-2c-0.1-0.4-0.1-0.8-0.2-1.3c-0.1-0.7-0.3-1.5-0.4-2.2c-0.1-0.4-0.1-0.7-0.2-1.1C85,30.9,84.7,29.8,84.4,28.6L84.4,28.6L84.4,28.6z"/><path fill="none" stroke="#454B54" stroke-linecap="round" stroke-linejoin="round" stroke-miterlimit="10" stroke-width="6" d="M84.4 28.6L84.4 28.6c12.3 43.1-27.6 83-70.7 70.7l0 0 0 0C1.3 56.2 41.2 16.3 84.4 28.6L84.4 28.6zM39.1 73.9L58.9 54.1M59.6 60.5L52.5 53.4M52.5 67.5L45.5 60.5M45.5 74.6L38.4 67.5M102.8 94L82.8 94M111.7 74L101.7 74M104.5 54L104.5 54M119.5 94L119.5 94"/></svg>