<svg xmlns="http://www.w3.org/2000/svg" viewBox="0 0 40 40" width="100px" height="100px"><path fill="#93a8bc" d="M11,39c-0.512,0-1.023-0.195-1.414-0.586c-0.781-0.781-0.781-2.047,0-2.828L16,29.171V17	c0-1.104,0.896-2,2-2s2,0.896,2,2v13c0,0.53-0.211,1.039-0.586,1.414l-7,7C12.023,38.805,11.512,39,11,39z"/><path fill="#ffeea3" d="M16.5 2.5A3 3 0 1 0 16.5 8.5A3 3 0 1 0 16.5 2.5Z"/><path fill="#ba9b48" d="M16.5,3C17.879,3,19,4.122,19,5.5S17.879,8,16.5,8S14,6.878,14,5.5S15.121,3,16.5,3 M16.5,2 C14.567,2,13,3.567,13,5.5C13,7.432,14.567,9,16.5,9S20,7.432,20,5.5C20,3.567,18.433,2,16.5,2L16.5,2z"/><path fill="#f78f8f" d="M34,4.5c-2.003,0-3.5-0.792-3.5-1.5s1.497-1.5,3.5-1.5s3.5,0.792,3.5,1.5S36.003,4.5,34,4.5z"/><path fill="#c74343" d="M34,2c1.936,0,3,0.751,3,1s-1.064,1-3,1s-3-0.751-3-1S32.064,2,34,2 M34,1c-2.209,0-4,0.895-4,2 s1.791,2,4,2s4-0.895,4-2S36.209,1,34,1L34,1z"/><path fill="#ffeea3" d="M7,24.5c-0.827,0-1.5-0.673-1.5-1.5v-5c0-0.395,0.16-0.781,0.439-1.061l5-5 C11.219,11.66,11.605,11.5,12,11.5h6.475l4.242-3.395l1.86-5.58c0.204-0.614,0.775-1.027,1.421-1.027 c0.161,0,0.321,0.026,0.477,0.078c0.38,0.126,0.688,0.394,0.867,0.752c0.18,0.358,0.208,0.765,0.081,1.145l-2,6 c-0.092,0.275-0.26,0.516-0.485,0.697l-5.001,4c-0.059,0.047-0.122,0.087-0.188,0.125L19.5,14.44v6.06h-7v-5.659l-4,3.771V23 C8.5,23.827,7.827,24.5,7,24.5z"/><path fill="#ba9b48" d="M25.998,1.999c0.107,0,0.214,0.018,0.318,0.052c0.254,0.085,0.459,0.263,0.578,0.502 c0.119,0.239,0.139,0.51,0.054,0.763l-2,6c-0.061,0.184-0.173,0.344-0.325,0.465l-5,4c-0.039,0.031-0.082,0.057-0.125,0.082 L19,14.152v0.577V20h-6v-4v-2.317l-1.686,1.59l-3,2.829L8,18.397v0.432V23c0,0.551-0.449,1-1,1s-1-0.449-1-1v-5 c0-0.263,0.107-0.521,0.293-0.707l5-5C11.479,12.107,11.737,12,12,12h6.299h0.351l0.274-0.219l3.99-3.193l0.23-0.184l0.093-0.28 l1.814-5.44C25.188,2.274,25.568,1.999,25.998,1.999 M25.998,0.999c-0.839,0-1.617,0.531-1.896,1.369l-1.813,5.439L18.299,11H12 c-0.53,0-1.039,0.211-1.414,0.586l-5,5C5.211,16.961,5,17.47,5,18v5c0,1.104,0.896,2,2,2s2-0.896,2-2v-4.171L12,16v5h8v-6.272 c0.086-0.05,0.17-0.104,0.249-0.167l5-4c0.302-0.241,0.526-0.563,0.648-0.929l2-6c0.35-1.048-0.217-2.18-1.265-2.53 C26.422,1.032,26.208,0.999,25.998,0.999L25.998,0.999z"/><g><path fill="#e1ebf2" d="M4.001,33.5c-0.602,0-1.143-0.357-1.379-0.909c-0.158-0.369-0.163-0.776-0.015-1.148 s0.434-0.664,0.802-0.822l6.481-2.778l2.609-6.75V20.5h7v0.293l-3.89,3.89l-3.208,4.87c-0.192,0.41-0.467,0.679-0.812,0.826l-7,3 C4.402,33.459,4.204,33.5,4.001,33.5z"/><path fill="#93a8bc" d="M18.586,21l-3.293,3.293l-0.072,0.072l-0.056,0.085l-3.18,4.828l-0.043,0.065l-0.032,0.071 c-0.103,0.228-0.286,0.407-0.516,0.505l-6.999,3C4.268,32.973,4.136,33,4.001,33c-0.401,0-0.762-0.238-0.92-0.607 c-0.105-0.245-0.109-0.517-0.009-0.765c0.099-0.248,0.289-0.443,0.534-0.548l6.288-2.695l0.387-0.166l0.152-0.393l2.5-6.467 L13,21.187V21H18.586 M20,20h-8v1l-2.5,6.467l-6.288,2.695c-1.015,0.435-1.485,1.611-1.05,2.626C2.486,33.546,3.225,34,4.001,34 c0.263,0,0.53-0.052,0.787-0.162l7-3c0.458-0.196,0.826-0.557,1.032-1.011L16,25l4-4V20L20,20z"/></g><g><path fill="#8bb7f0" d="M12.5,20.5v-5.659l-3.556,3.353l-2.57-1.688l4.565-4.566C11.219,11.66,11.605,11.5,12,11.5h6.475 l3.79-3.033l2.22,2.065l-4.548,3.638c-0.059,0.047-0.122,0.087-0.188,0.125L19.5,14.44v6.06H12.5z"/><path fill="#4e7ab5" d="M22.24,9.127l1.48,1.377l-4.095,3.276c-0.039,0.031-0.082,0.057-0.125,0.082L19,14.152v0.577V20h-6 v-4v-2.317l-1.686,1.59l-2.425,2.287l-1.727-1.135l4.131-4.131C11.479,12.107,11.737,12,12,12h6.299h0.351l0.274-0.219 L22.24,9.127 M22.289,7.807L18.299,11H12c-0.53,0-1.039,0.211-1.414,0.586l-5,5L9,18.829L12,16v5h8v-6.272 c0.086-0.05,0.17-0.104,0.249-0.167l5-4L22.289,7.807L22.289,7.807z"/></g></svg>