<svg xmlns="http://www.w3.org/2000/svg" viewBox="0 0 40 40" width="100px" height="100px"><path fill="#e1ebf2" d="M20,24.5c-6.341,0-11.5-5.159-11.5-11.5S13.659,1.5,20,1.5S31.5,6.659,31.5,13S26.341,24.5,20,24.5z"/><path fill="#a3b7cc" d="M20,2c6.065,0,11,4.935,11,11c0,6.065-4.935,11-11,11S9,19.065,9,13C9,6.935,13.935,2,20,2 M20,1 C13.373,1,8,6.373,8,13c0,6.627,5.373,12,12,12s12-5.373,12-12C32,6.373,26.627,1,20,1L20,1z"/><path fill="#ffc49c" d="M19.416,38.5c-0.301-1.624-1.404-7.599-1.636-9.077c-0.179-1.136-1.557-1.638-2.28-1.825V24.5h9 v3.098c-0.724,0.187-2.102,0.689-2.28,1.825c-0.231,1.479-1.335,7.454-1.636,9.078H19.416z"/><path fill="#b08159" d="M24,25v2.22c-0.872,0.281-2.08,0.89-2.274,2.125c-0.214,1.368-1.181,6.615-1.558,8.655h-0.337 c-0.377-2.04-1.344-7.287-1.558-8.655C18.08,28.11,16.872,27.502,16,27.22V25H24 M25,24H15v4c0,0,2.105,0.353,2.286,1.5 C17.557,31.234,19,39,19,39h2c0,0,1.443-7.766,1.714-9.5C22.895,28.352,25,28,25,28V24L25,24z"/><path fill="#e1ebf2" d="M19.5 11.5A1 1 0 1 0 19.5 13.5A1 1 0 1 0 19.5 11.5Z"/><path fill="#b0c1d4" d="M19.5,12c0.276,0,0.5,0.224,0.5,0.5S19.776,13,19.5,13S19,12.776,19,12.5S19.224,12,19.5,12 M19.5,11c-0.829,0-1.5,0.671-1.5,1.5s0.671,1.5,1.5,1.5s1.5-0.671,1.5-1.5S20.329,11,19.5,11L19.5,11z"/><path fill="#e1ebf2" d="M24.5 11.5A1 1 0 1 0 24.5 13.5A1 1 0 1 0 24.5 11.5Z"/><path fill="#b0c1d4" d="M24.5,12c0.276,0,0.5,0.224,0.5,0.5S24.776,13,24.5,13S24,12.776,24,12.5S24.224,12,24.5,12 M24.5,11c-0.829,0-1.5,0.671-1.5,1.5s0.671,1.5,1.5,1.5s1.5-0.671,1.5-1.5S25.329,11,24.5,11L24.5,11z"/><path fill="#e1ebf2" d="M29.5 11.5A1 1 0 1 0 29.5 13.5A1 1 0 1 0 29.5 11.5Z"/><path fill="#b0c1d4" d="M29.5,12c0.276,0,0.5,0.224,0.5,0.5S29.776,13,29.5,13S29,12.776,29,12.5S29.224,12,29.5,12 M29.5,11c-0.828,0-1.5,0.672-1.5,1.5s0.672,1.5,1.5,1.5s1.5-0.672,1.5-1.5S30.328,11,29.5,11L29.5,11z"/><path fill="#e1ebf2" d="M14.5 11.5A1 1 0 1 0 14.5 13.5A1 1 0 1 0 14.5 11.5Z"/><path fill="#b0c1d4" d="M14.5,12c0.276,0,0.5,0.224,0.5,0.5S14.776,13,14.5,13S14,12.776,14,12.5S14.224,12,14.5,12 M14.5,11c-0.829,0-1.5,0.671-1.5,1.5s0.671,1.5,1.5,1.5s1.5-0.671,1.5-1.5S15.329,11,14.5,11L14.5,11z"/><path fill="#e1ebf2" d="M17.5 7.5A1 1 0 1 0 17.5 9.5A1 1 0 1 0 17.5 7.5Z"/><path fill="#b0c1d4" d="M17.5,8C17.776,8,18,8.224,18,8.5S17.776,9,17.5,9S17,8.776,17,8.5S17.224,8,17.5,8 M17.5,7 C16.671,7,16,7.671,16,8.5s0.671,1.5,1.5,1.5S19,9.329,19,8.5S18.329,7,17.5,7L17.5,7z"/><path fill="#e1ebf2" d="M22.5 7.5A1 1 0 1 0 22.5 9.5A1 1 0 1 0 22.5 7.5Z"/><path fill="#b0c1d4" d="M22.5,8C22.776,8,23,8.224,23,8.5S22.776,9,22.5,9S22,8.776,22,8.5S22.224,8,22.5,8 M22.5,7 C21.671,7,21,7.671,21,8.5s0.671,1.5,1.5,1.5S24,9.329,24,8.5S23.329,7,22.5,7L22.5,7z"/><path fill="#e1ebf2" d="M27.5 7.5A1 1 0 1 0 27.5 9.5A1 1 0 1 0 27.5 7.5Z"/><path fill="#b0c1d4" d="M27.5,8C27.776,8,28,8.224,28,8.5S27.776,9,27.5,9S27,8.776,27,8.5S27.224,8,27.5,8 M27.5,7 C26.672,7,26,7.672,26,8.5s0.672,1.5,1.5,1.5S29,9.328,29,8.5S28.328,7,27.5,7L27.5,7z"/><path fill="#e1ebf2" d="M12.5 7.5A1 1 0 1 0 12.5 9.5A1 1 0 1 0 12.5 7.5Z"/><path fill="#b0c1d4" d="M12.5,8C12.776,8,13,8.224,13,8.5S12.776,9,12.5,9S12,8.776,12,8.5S12.224,8,12.5,8 M12.5,7 C11.672,7,11,7.672,11,8.5s0.672,1.5,1.5,1.5S14,9.328,14,8.5S13.328,7,12.5,7L12.5,7z"/><g><path fill="#e1ebf2" d="M20.5 3.5A1 1 0 1 0 20.5 5.5A1 1 0 1 0 20.5 3.5Z"/><path fill="#b0c1d4" d="M20.5,4C20.776,4,21,4.224,21,4.5S20.776,5,20.5,5S20,4.776,20,4.5S20.224,4,20.5,4 M20.5,3 C19.671,3,19,3.671,19,4.5S19.671,6,20.5,6S22,5.329,22,4.5S21.329,3,20.5,3L20.5,3z"/></g><g><path fill="#e1ebf2" d="M15.5 3.5A1 1 0 1 0 15.5 5.5A1 1 0 1 0 15.5 3.5Z"/><path fill="#b0c1d4" d="M15.5,4C15.776,4,16,4.224,16,4.5S15.776,5,15.5,5S15,4.776,15,4.5S15.224,4,15.5,4 M15.5,3 C14.672,3,14,3.672,14,4.5S14.672,6,15.5,6C16.328,6,17,5.328,17,4.5S16.328,3,15.5,3L15.5,3z"/></g><g><path fill="#e1ebf2" d="M16.5 15.5A1 1 0 1 0 16.5 17.5A1 1 0 1 0 16.5 15.5Z"/><path fill="#b0c1d4" d="M16.5,16c0.276,0,0.5,0.224,0.5,0.5S16.776,17,16.5,17S16,16.776,16,16.5S16.224,16,16.5,16 M16.5,15c-0.829,0-1.5,0.671-1.5,1.5s0.671,1.5,1.5,1.5c0.829,0,1.5-0.671,1.5-1.5S17.329,15,16.5,15L16.5,15z"/></g><g><path fill="#e1ebf2" d="M21.5 15.5A1 1 0 1 0 21.5 17.5A1 1 0 1 0 21.5 15.5Z"/><path fill="#b0c1d4" d="M21.5,16c0.276,0,0.5,0.224,0.5,0.5S21.776,17,21.5,17S21,16.776,21,16.5S21.224,16,21.5,16 M21.5,15c-0.829,0-1.5,0.671-1.5,1.5s0.671,1.5,1.5,1.5s1.5-0.671,1.5-1.5S22.329,15,21.5,15L21.5,15z"/></g><g><path fill="#e1ebf2" d="M26.5 15.5A1 1 0 1 0 26.5 17.5A1 1 0 1 0 26.5 15.5Z"/><path fill="#b0c1d4" d="M26.5,16c0.276,0,0.5,0.224,0.5,0.5S26.776,17,26.5,17S26,16.776,26,16.5S26.224,16,26.5,16 M26.5,15c-0.828,0-1.5,0.672-1.5,1.5s0.672,1.5,1.5,1.5s1.5-0.672,1.5-1.5S27.328,15,26.5,15L26.5,15z"/></g><g><path fill="#e1ebf2" d="M11.5 15.5A1 1 0 1 0 11.5 17.5A1 1 0 1 0 11.5 15.5Z"/><path fill="#b0c1d4" d="M11.5,16c0.276,0,0.5,0.224,0.5,0.5S11.776,17,11.5,17S11,16.776,11,16.5S11.224,16,11.5,16 M11.5,15c-0.828,0-1.5,0.672-1.5,1.5s0.672,1.5,1.5,1.5s1.5-0.672,1.5-1.5S12.328,15,11.5,15L11.5,15z"/></g><g><path fill="#e1ebf2" d="M23.5 19.5A1 1 0 1 0 23.5 21.5A1 1 0 1 0 23.5 19.5Z"/><path fill="#b0c1d4" d="M23.5,20c0.276,0,0.5,0.224,0.5,0.5S23.776,21,23.5,21S23,20.776,23,20.5S23.224,20,23.5,20 M23.5,19c-0.828,0-1.5,0.672-1.5,1.5s0.672,1.5,1.5,1.5s1.5-0.672,1.5-1.5S24.328,19,23.5,19L23.5,19z"/></g><g><path fill="#e1ebf2" d="M18.5 19.5A1 1 0 1 0 18.5 21.5A1 1 0 1 0 18.5 19.5Z"/><path fill="#b0c1d4" d="M18.5,20c0.276,0,0.5,0.224,0.5,0.5S18.776,21,18.5,21S18,20.776,18,20.5S18.224,20,18.5,20 M18.5,19c-0.829,0-1.5,0.671-1.5,1.5s0.671,1.5,1.5,1.5s1.5-0.671,1.5-1.5S19.329,19,18.5,19L18.5,19z"/></g><g><path fill="#b08159" d="M15,27v1c0,0,1.453,0.253,2.043,1h5.914C23.547,28.252,25,28,25,28v-1H15z"/></g><g><path fill="#b0c1d4" d="M24 4.5C24 5.328 24.672 6 25.5 6c.821 0 1.487-.662 1.498-1.48-.652-.539-1.372-.993-2.136-1.372C24.354 3.388 24 3.901 24 4.5zM25.5 4C25.776 4 26 4.224 26 4.5S25.776 5 25.5 5 25 4.776 25 4.5 25.224 4 25.5 4zM11 12.5c0-.828-.672-1.5-1.5-1.5-.108 0-.213.013-.314.034-.077.425-.125.859-.152 1.299C9.103 12.14 9.283 12 9.5 12c.276 0 .5.224.5.5S9.776 13 9.5 13c-.24 0-.432-.174-.48-.4C9.015 12.734 9 12.865 9 13c0 .311.021.618.047.923C9.191 13.969 9.341 14 9.5 14 10.328 14 11 13.328 11 12.5zM30 16.5c0 .246.065.475.17.68.262-.636.47-1.299.609-1.988C30.317 15.448 30 15.935 30 16.5zM20.5 23c-.635 0-1.175.397-1.394.955C19.402 23.979 19.698 24 20 24c.627 0 1.238-.065 1.837-.166C21.591 23.342 21.087 23 20.5 23zM28.5 19c-.828 0-1.5.672-1.5 1.5 0 .285.084.549.223.776.273-.239.533-.49.782-.755 0-.008-.004-.014-.004-.022 0-.266.211-.48.474-.495.23-.278.447-.567.649-.866C28.933 19.052 28.723 19 28.5 19zM13.672 21.983C14.418 21.896 15 21.269 15 20.5c0-.828-.672-1.5-1.5-1.5S12 19.672 12 20.5c0 .01.003.02.003.03C12.51 21.068 13.067 21.555 13.672 21.983zM13.5 20c.276 0 .5.224.5.5S13.776 21 13.5 21 13 20.776 13 20.5 13.224 20 13.5 20z"/></g></svg>