<svg xmlns="http://www.w3.org/2000/svg" viewBox="0 0 40 40" width="100px" height="100px"><path fill="#ffeea3" d="M14.999,38.5c-0.202,0-0.4-0.041-0.589-0.122c-0.369-0.158-0.654-0.45-0.802-0.822 c-0.149-0.371-0.144-0.779,0.014-1.147l6.348-17.331l-5.631,8.606c-0.284,0.516-0.789,0.815-1.339,0.815 c-0.252,0-0.494-0.062-0.716-0.183c-0.727-0.396-0.995-1.31-0.599-2.036l7.139-13.781h-4.821c-0.458,0-0.886-0.205-1.172-0.563 l-4-5C8.553,6.592,8.443,6.146,8.527,5.713c0.085-0.439,0.351-0.805,0.749-1.028C9.48,4.569,9.708,4.511,9.95,4.511 c0.489,0,0.971,0.238,1.289,0.637l3.482,4.352H20c0.204,0,0.402,0.041,0.589,0.121l6.618,2.669c0.167,0.072,0.326,0.18,0.46,0.314 l5.396,5.337c0.339,0.34,0.496,0.829,0.417,1.306l-1,6c-0.121,0.726-0.742,1.253-1.477,1.253c-0.167,0-0.326-0.026-0.485-0.079 c-0.689-0.229-1.111-0.982-0.982-1.754l0.861-5.172l-0.208-0.184c-3.927-3.468-3.932-3.468-4.188-3.468h-0.33l-9.292,21.748 C16.142,38.143,15.6,38.5,14.999,38.5z"/><path fill="#ba9b48" d="M9.95,5.011c0.333,0,0.677,0.172,0.899,0.449l3.332,4.164l0.3,0.375h0.481H20 c0.135,0,0.267,0.027,0.412,0.089L27,12.744c0.118,0.051,0.224,0.122,0.318,0.217l5.389,5.331c0.228,0.228,0.332,0.554,0.279,0.872 l-1,6c-0.081,0.484-0.495,0.835-0.984,0.835c-0.111,0-0.219-0.018-0.329-0.054c-0.449-0.149-0.732-0.675-0.645-1.197l0.816-4.898 l0.091-0.547l-0.416-0.367c-4.07-3.594-4.07-3.594-4.519-3.594l-0.661,0L25.08,15.95l-9.161,21.443 C15.761,37.762,15.4,38,14.999,38c-0.134,0-0.265-0.028-0.393-0.082c-0.245-0.105-0.435-0.299-0.534-0.547 c-0.099-0.248-0.096-0.52,0.009-0.766l0.011-0.025l0.009-0.025l4.838-13.212l2.999-8.188l-4.774,7.297l-3.244,4.958l-0.022,0.033 l-0.019,0.035c-0.176,0.322-0.513,0.521-0.88,0.521c-0.168,0-0.328-0.041-0.476-0.122c-0.484-0.264-0.663-0.873-0.389-1.376 l6.756-13.042l0.756-1.46H18h-3.999c-0.306,0-0.591-0.137-0.782-0.376l-4-5C9.036,6.394,8.962,6.097,9.018,5.808 C9.075,5.515,9.254,5.271,9.521,5.12C9.65,5.048,9.794,5.011,9.95,5.011L9.95,5.011 M9.95,4.011c-0.315,0-0.63,0.076-0.919,0.238 C7.924,4.872,7.679,6.3,8.438,7.248l4,5c0.38,0.475,0.955,0.751,1.563,0.751H18l-6.756,13.042c-0.529,0.97-0.171,2.185,0.798,2.714 c0.304,0.166,0.632,0.244,0.956,0.244c0.708,0,1.395-0.377,1.758-1.042L18,22.999l-4.838,13.212 c-0.435,1.016,0.035,2.191,1.051,2.626C14.469,38.947,14.736,39,14.999,39c0.776,0,1.514-0.455,1.839-1.213L26,16.343 c0,0,0,0,0.001,0c0.071,0,3.857,3.343,3.857,3.343l-0.816,4.898c-0.164,0.984,0.37,1.996,1.317,2.31 c0.218,0.072,0.433,0.105,0.644,0.105c0.96,0,1.807-0.693,1.97-1.671l1-6c0.106-0.637-0.102-1.286-0.559-1.743l-5.393-5.335 c-0.18-0.18-0.393-0.324-0.627-0.425L20.786,9.16C20.537,9.054,20.27,8.999,20,8.999h-5.039l-3.332-4.164 C11.214,4.316,10.582,4.011,9.95,4.011L9.95,4.011z"/><path fill="#ffeea3" d="M26.5 2.5A3 3 0 1 0 26.5 8.5A3 3 0 1 0 26.5 2.5Z"/><path fill="#ba9b48" d="M26.5,3C27.878,3,29,4.121,29,5.5S27.878,8,26.5,8S24,6.879,24,5.5S25.122,3,26.5,3 M26.5,2 C24.566,2,23,3.566,23,5.5S24.566,9,26.5,9C28.433,9,30,7.434,30,5.5S28.433,2,26.5,2L26.5,2z"/><path fill="#839cb2" d="M14.5 1.5A2 2 0 1 0 14.5 5.5A2 2 0 1 0 14.5 1.5Z"/><path fill="#66798f" d="M14.5,2C15.327,2,16,2.673,16,3.5S15.327,5,14.5,5S13,4.327,13,3.5S13.673,2,14.5,2 M14.5,1 C13.119,1,12,2.12,12,3.5S13.119,6,14.5,6C15.88,6,17,4.88,17,3.5S15.88,1,14.5,1L14.5,1z"/><g><path fill="#99c99e" d="M18.94,21.602l-3.842-1.846l0.167-0.393l3.558-6.864H16.5v-3H20c0.204,0,0.402,0.041,0.589,0.121 l6.618,2.669c0.167,0.072,0.326,0.18,0.46,0.314l2.538,2.487l-2.236,2.251l-2.163-1.814l-3.332,7.756L18.94,21.602z"/><path fill="#5e9c76" d="M20,9.999c0.135,0,0.267,0.027,0.412,0.089l6.588,2.656c0.118,0.051,0.224,0.122,0.321,0.22 l2.175,2.131l-1.557,1.568l-1.296-1.087l-1.031-0.865l-0.531,1.236l-2.861,6.661l-3.062-1.457l-0.056-0.027l-3.351-1.609 l3.137-6.056l0.756-1.46H18h-1v-2H20 M20,8.999h-4v4h2l-3.196,6.169L14.451,20l4.218,2.026l0.056,0.027l4.004,1.906L26,16.343 l2,1.678l2.914-2.935l-2.894-2.836c-0.18-0.18-0.393-0.324-0.627-0.425L20.786,9.16C20.537,9.054,20.27,8.999,20,8.999L20,8.999z"/></g><g><path fill="#839cb2" d="M17.005,27.171l2.366-6.461l3.469,1.757l-2.65,6.203L17.005,27.171z M12.355,24.982l3.211-6.198 l3.451,1.747l-3.795,5.8L12.355,24.982z"/><path fill="#66798f" d="M15.782,19.454l2.51,1.271l-1.13,1.726l-2.122,3.243l-2.003-0.943L15.782,19.454 M19.647,21.411 l2.549,1.291l-2.262,5.295l-2.302-1.083l1.307-3.57L19.647,21.411 M15.35,18.115l-3.678,7.099l3.73,1.755L18,22.999l-1.622,4.429 l4.068,1.914l3.038-7.11L15.35,18.115L15.35,18.115z"/></g></svg>