<svg xmlns="http://www.w3.org/2000/svg" viewBox="0 0 128 128" width="100px" height="100px"><path fill="#fff" d="M51 47A45 15 0 1 0 51 77A45 15 0 1 0 51 47Z"/><path fill="#444b54" d="M51,77c24.9,0,45-6.7,45-15l0,0v25c0,8.3-20.1,15-45,15c-24.9,0-45-6.7-45-15V62l0,0C6,70.3,26.1,77,51,77z"/><path fill="#b8e4ff" d="M26,74.5V98c0,0.5,0.1,1,0.2,1.5C14,96.8,6,92.2,6,87V62C6,67.2,13.9,71.8,26,74.5z"/><path fill="#444b54" d="M83.8 48.5C75 45.6 63.3 44 51 44s-24 1.6-32.8 4.5C5.6 52.7 3 58.2 3 62v25c0 3.8 2.6 9.3 15.2 13.5C27 103.4 38.7 105 51 105s24-1.6 32.8-4.5C96.4 96.3 99 90.8 99 87V62C99 58.2 96.4 52.7 83.8 48.5zM51 50c25.6 0 42 7.1 42 12S76.6 74 51 74 9 66.9 9 62 25.4 50 51 50zM51 99C25.4 99 9 91.9 9 87V71.2c2.2 1.5 5.2 3 9.2 4.3C27 78.4 38.7 80 51 80s24-1.6 32.8-4.5c4-1.3 7-2.8 9.2-4.3V87C93 91.9 76.6 99 51 99zM103.6 45.4c-.8 0-1.5-.3-2.1-.9-1.2-1.2-1.2-3.1 0-4.2l7.8-7.8c1.2-1.2 3.1-1.2 4.2 0 1.2 1.2 1.2 3.1 0 4.2l-7.8 7.8C105.2 45.1 104.4 45.4 103.6 45.4zM87.1 35.8c-.3 0-.5 0-.8-.1-1.6-.4-2.5-2.1-2.1-3.7l2.6-9.7c.4-1.6 2.1-2.5 3.7-2.1 1.6.4 2.5 2.1 2.1 3.7L90 33.6C89.6 34.9 88.4 35.8 87.1 35.8zM113.2 62c-1.3 0-2.5-.9-2.9-2.2-.4-1.6.5-3.2 2.1-3.7l9.7-2.6c1.6-.4 3.2.5 3.7 2.1.4 1.6-.5 3.2-2.1 3.7l-9.7 2.6C113.7 61.9 113.5 62 113.2 62zM119.9 23.1A3 3 0 1 0 119.9 29.1 3 3 0 1 0 119.9 23.1z"/></svg>