<svg xmlns="http://www.w3.org/2000/svg" viewBox="0 0 48 48" width="100px" height="100px"><path fill="#ffba57" d="M44.5,40.7L38.8,35l-4.2-9.2L29,29l7,8.7l5.7,5.7c0.8,0.8,2,0.8,2.8,0C45.2,42.7,45.2,41.4,44.5,40.7 z"/><path fill="#7e57c2" d="M29.3 29.3L33.9 35.2 37.8 33 34.6 25.8z"/><path fill="#607d8b" d="M8.4 14.9H14.7V16.9H8.4z" transform="rotate(-79.933 11.552 15.883)"/><path fill="#448aff" d="M8,13c0,1.1-0.9,2-2,2s-2-0.9-2-2s0.9-2,2-2S8,11.9,8,13z"/><path fill="#ffba57" d="M32,28c0-0.1,1-0.9,1-1c0-0.1,2,0.4,2,0.3c-0.1-0.9-5.8-10.5-5.8-10.5l3.3-3.5l5.1,4.4 c0.7,0.5,1.6,0.3,2.1-0.3c0.5-0.7,0.3-1.6-0.3-2.1l-6-5c-0.5-0.4-1.2-0.4-1.7,0l-2.6,2l-5.9,4.6l-6,4.7l-4.6-4.1 c-0.6-0.6-1.5-0.6-2.1,0s-0.6,1.5,0,2.1l5.5,5c0.3,0.3,0.7,0.4,1.1,0.4c0.3,0,0.6-0.1,0.9-0.3l5.6-3.7c2.5,2.5,4,4.4,4.4,6.1l-6.6,4 c-0.5,0.2-1,0.6-1.2,1.1l-4,9c-0.4,1,0.1,2.2,1.1,2.6C17.5,44,17.8,44,18,44c0.8,0,1.5-0.5,1.9-1.3l3.7-8.2l6.9-2.8L32,28z"/><path fill="#ffba57" d="M21.5,8C19.6,8,18,9.6,18,11.5c0,1.9,1.6,3.5,3.5,3.5s3.5-1.6,3.5-3.5C25,9.6,23.4,8,21.5,8"/><path fill="#5ec08f" d="M28,27l5.9-2.4l-4.7-7.8l2-2l-2.1-2.5l-10.3,8l1.9,2.6l2.8-1.9l4.4,6.1L28,27z"/><path fill="#9575cd" d="M35,27.3c0-1.1-1.1-2.7-1.1-2.7L28,27l-4.1,2.5l2.2,4l6.6-2.7c0.3-0.1,0.5-0.3,0.7-0.5 C34.4,29.7,35.1,28.6,35,27.3z"/><path fill="#607d8b" d="M12.2,13.9c-0.1,0-0.2,0-0.3,0c-1.5-0.3-1.8-2.4-1.9-3.9c-0.1-1.5,0-3.3,0.1-4.1 c0.2-0.9,0.7-1.7,1.4-2.3c0.8-0.5,1.7-0.7,2.6-0.6c1.9,0.3,3.2,2.2,2.8,4.1C16.9,8,16.2,9.6,15.4,11C14.3,13,13.2,13.9,12.2,13.9z M13.6,5c-0.3,0-0.6,0.1-0.9,0.3c-0.3,0.2-0.5,0.6-0.6,1v0c-0.2,1.4-0.2,4.5,0.2,5.5c0.9-0.7,2.5-3.8,2.7-5c0.1-0.8-0.4-1.6-1.2-1.7 C13.8,5,13.7,5,13.6,5z"/></svg>