<svg xmlns="http://www.w3.org/2000/svg" width="100" height="100" viewBox="0 0 128 128"><path fill="#ededed" d="M64 19A45 45 0 1 0 64 109A45 45 0 1 0 64 19Z"/><path fill="#fff" d="M55.3 49L46.7 64 29.4 64 20.7 49 29.4 34 46.7 34z"/><path fill="#f4f4f4" d="M81.3 34L72.7 49 55.3 49 46.7 34 55.3 19 72.7 19z"/><path fill="#fff" d="M39.3,39.3C55.7,22.9,81.5,21.8,99.2,36c-1-1.3-2.1-2.5-3.3-3.7c-17.6-17.6-46.1-17.6-63.6,0 c-17.6,17.6-17.6,46.1,0,63.6c1.2,1.2,2.4,2.3,3.7,3.3C21.8,81.5,22.9,55.6,39.3,39.3z"/><path fill="#f4f4f4" d="M55.3 79L46.7 94 29.4 94 20.7 79 29.4 64 46.7 64z"/><path fill="#454b54" d="M81.3 64L72.7 79 55.3 79 46.7 64 55.3 49 72.7 49z"/><path fill="#e5e5e5" d="M107.3 49L98.7 64 81.3 64 72.7 49 81.3 34 98.7 34 107.3 49"/><path fill="#d3d3d3" d="M107.3 79L98.7 94 81.3 94 72.7 79 81.3 64 98.7 64 107.3 79"/><path fill="#c6c6c5" d="M81.3 94L72.7 109 55.3 109 46.7 94 55.3 79 72.7 79 81.3 94"/><path fill="#cecece" d="M97.5,34H95c3.6,9.5-0.6,21-5.7,30h9.4l8.1-14C104.9,44.2,101.8,38.8,97.5,34"/><path fill="#bdbdbd" d="M98.7,64h-9.4c-4.4,7.9-9.5,13.8-10.5,14.8c-0.6,0.6-2.1,2-4.2,3.6L81.3,94h16.2 c4.3-4.8,7.4-10.2,9.2-16L98.7,64"/><path fill="#b2b2b1" d="M74.6,82.4C68.9,86.9,58.4,93.9,47.8,96l6.9,12c3,0.6,6.1,1,9.1,1h0.3c3,0,6.1-0.3,9.1-0.9L81.3,94 L74.6,82.4"/><path fill="#454b54" d="M30.5 34h16.2l8.1-14c-8.3 1.7-16.2 5.8-22.6 12.2C31.6 32.8 31 33.4 30.5 34zM81.3 34h16.2c-.6-.6-1.1-1.2-1.7-1.8C89.4 25.8 81.5 21.7 73.2 20L81.3 34zM106.8 50l-8.1 14 8.1 14C109.7 68.9 109.7 59.1 106.8 50zM73.9 106.9c8-1.8 15.7-5.8 21.9-12.1.3-.3.5-.5.8-.8H81.3L73.9 106.9zM46.7 94H30.5c.6.6 1.1 1.2 1.7 1.8 6.4 6.4 14.3 10.5 22.6 12.2L46.7 94zM21.2 78l8.1-14-8.1-14C18.3 59.1 18.3 68.9 21.2 78z"/><path fill="none" stroke="#454b54" stroke-linecap="round" stroke-linejoin="round" stroke-miterlimit="10" stroke-width="6" d="M64 19A45 45 0 1 0 64 109A45 45 0 1 0 64 19Z"/></svg>