<svg xmlns="http://www.w3.org/2000/svg" viewBox="0 0 64 64" width="100px" height="100px"><path fill="#ace3ff" d="M57,54.959H7v-28.28c20.667,11.408,29.333-11.408,50,0V54.959z"/><path fill="#85cbf8" d="M7,36.599v8.68c20.667,11.408,29.333-11.408,50,0v-8.68C36.333,25.191,27.667,48.007,7,36.599z"/><path fill="#faefde" d="M44.556 23L31.828 10.272c-1.562-1.562-4.095-1.562-5.657 0l-8.45 8.45c-1.105 1.105-1.105 2.895 0 4l0 0c1.105 1.105 2.895 1.105 4 0l6.5-6.5L32.5 20.5l-6.969 6.969M48 9A5 5 0 1 0 48 19 5 5 0 1 0 48 9z"/><path fill="#8d6c9f" d="M24 30c-.256 0-.512-.098-.707-.293-.391-.391-.391-1.023 0-1.414l7.793-7.793-2.864-2.864-5.793 5.793c-1.445 1.446-3.969 1.446-5.414 0-1.493-1.493-1.493-3.921 0-5.414l8.45-8.45C26.409 8.621 27.664 8.101 29 8.101s2.591.52 3.535 1.464l12.729 12.728c.391.391.391 1.023 0 1.414s-1.023.391-1.414 0L31.121 10.979c-1.133-1.133-3.109-1.133-4.242 0l-8.45 8.45c-.346.345-.535.805-.535 1.293s.189.948.535 1.293c.691.69 1.895.69 2.586 0l6.5-6.5c.391-.391 1.023-.391 1.414 0l4.278 4.278c.391.391.391 1.023 0 1.414l-8.5 8.5C24.512 29.902 24.256 30 24 30zM48 20c-3.309 0-6-2.691-6-6s2.691-6 6-6 6 2.691 6 6S51.309 20 48 20zM48 10c-2.206 0-4 1.794-4 4s1.794 4 4 4 4-1.794 4-4S50.206 10 48 10z"/><path fill="#8d6c9f" d="M57,55.958H7c-0.553,0-1-0.448-1-1v-28.28c0-0.354,0.187-0.681,0.492-0.861 c0.303-0.18,0.681-0.186,0.991-0.014c9.924,5.478,16.836,2.791,24.154-0.057c7.425-2.888,15.104-5.873,25.846,0.057 C57.802,25.979,58,26.314,58,26.679v28.28C58,55.511,57.553,55.958,57,55.958z M8,53.958h48V27.275 c-9.646-5.104-16.446-2.46-23.638,0.336C25.282,30.364,17.975,33.205,8,28.327V53.958z"/><path fill="#8d6c9f" d="M10.192 35.287c-.122 0-.245-.022-.365-.069-.514-.202-.768-.782-.565-1.296l.73-1.862c.201-.515.783-.768 1.296-.566.514.202.768.782.565 1.296l-.73 1.862C10.969 35.046 10.592 35.287 10.192 35.287zM15.125 36.659c-.054 0-.109-.004-.164-.014-.545-.09-.914-.605-.823-1.15l.327-1.973c.09-.544.603-.917 1.149-.823.545.09.914.605.823 1.15l-.327 1.973C16.029 36.312 15.605 36.659 15.125 36.659zM20.255 36.908c-.521 0-.961-.404-.997-.932l-.136-1.996c-.037-.551.379-1.028.931-1.065.555-.026 1.028.379 1.065.93l.136 1.996c.037.551-.379 1.028-.931 1.065C20.301 36.907 20.277 36.908 20.255 36.908zM25.285 36.059c-.442 0-.848-.297-.966-.745l-.511-1.934c-.141-.534.178-1.081.711-1.222.534-.139 1.082.177 1.223.711l.511 1.934c.141.534-.178 1.081-.711 1.222C25.456 36.048 25.37 36.059 25.285 36.059zM30.053 34.496c-.405 0-.787-.249-.937-.651l-.699-1.874c-.193-.518.069-1.093.587-1.287.518-.193 1.094.07 1.286.587l.699 1.874c.193.518-.069 1.093-.587 1.287C30.287 34.475 30.169 34.496 30.053 34.496zM34.646 32.736c-.405 0-.787-.249-.937-.651l-.699-1.874c-.193-.518.069-1.093.587-1.287.517-.192 1.094.07 1.286.587l.699 1.874c.193.518-.069 1.093-.587 1.287C34.881 32.716 34.763 32.736 34.646 32.736zM39.224 31.233c-.442 0-.848-.297-.966-.745l-.511-1.934c-.141-.534.178-1.081.711-1.222.534-.14 1.082.177 1.223.711l.511 1.934c.141.534-.178 1.081-.711 1.222C39.395 31.222 39.309 31.233 39.224 31.233zM43.879 30.445c-.521 0-.961-.404-.997-.932l-.136-1.996c-.037-.551.379-1.028.931-1.065.545-.031 1.028.379 1.065.93l.136 1.996c.037.551-.379 1.028-.931 1.065C43.925 30.444 43.901 30.445 43.879 30.445zM48.55 30.671c-.054 0-.109-.004-.165-.014-.544-.09-.913-.605-.822-1.15l.327-1.973c.09-.544.594-.918 1.15-.823.544.09.913.605.822 1.15l-.327 1.973C49.454 30.324 49.03 30.671 48.55 30.671zM53.077 31.933c-.122 0-.245-.022-.365-.069-.514-.202-.768-.782-.565-1.296l.73-1.862c.201-.515.783-.768 1.296-.566.514.202.768.782.565 1.296l-.73 1.862C53.854 31.692 53.477 31.933 53.077 31.933z"/><g><path fill="#8d6c9f" d="M25.111,40.071c-0.441,0-0.846-0.295-0.965-0.743c-0.143-0.533,0.174-1.082,0.708-1.224 c2.302-0.614,4.58-1.5,6.783-2.357c7.424-2.888,15.104-5.873,25.846,0.057c0.483,0.267,0.659,0.875,0.392,1.359 c-0.266,0.483-0.874,0.659-1.358,0.392c-9.924-5.479-16.837-2.79-24.154,0.057c-2.254,0.876-4.584,1.783-6.992,2.426 C25.284,40.06,25.197,40.071,25.111,40.071z"/></g><g><path fill="#8d6c9f" d="M12.97,40.173c-0.089,0-0.18-0.012-0.27-0.037c-2.019-0.562-4.1-1.431-6.184-2.582 c-0.483-0.267-0.659-0.875-0.393-1.359c0.267-0.483,0.875-0.659,1.359-0.392c1.948,1.075,3.884,1.885,5.754,2.406 c0.532,0.148,0.843,0.7,0.694,1.232C13.809,39.883,13.407,40.173,12.97,40.173z"/></g><g><path fill="#8d6c9f" d="M56.999,46.313c-0.163,0-0.329-0.04-0.482-0.125c-1.926-1.063-3.839-1.866-5.686-2.386 c-0.531-0.149-0.841-0.702-0.691-1.233c0.151-0.532,0.704-0.842,1.234-0.691c1.993,0.562,4.049,1.423,6.109,2.56 c0.483,0.267,0.659,0.875,0.393,1.359C57.693,46.127,57.352,46.313,56.999,46.313z"/></g><g><path fill="#8d6c9f" d="M42.979,43.144c-0.505,0-0.939-0.381-0.993-0.895c-0.059-0.549,0.34-1.042,0.889-1.1 c1.462-0.155,2.864-0.172,4.288-0.047c0.551,0.047,0.958,0.532,0.91,1.082c-0.048,0.55-0.526,0.962-1.082,0.91 c-1.294-0.111-2.573-0.097-3.905,0.044C43.049,43.142,43.014,43.144,42.979,43.144z"/></g><g><path fill="#8d6c9f" d="M18.718,49.61c-3.661,0-7.656-0.913-12.201-3.421c-0.483-0.267-0.659-0.875-0.392-1.359 c0.266-0.482,0.874-0.66,1.358-0.392c9.924,5.478,16.836,2.791,24.154-0.057c2.275-0.885,4.628-1.799,7.061-2.444 c0.533-0.141,1.081,0.177,1.223,0.711c0.142,0.534-0.177,1.081-0.711,1.223c-2.324,0.615-4.623,1.51-6.847,2.375 C28.079,47.912,23.71,49.61,18.718,49.61z"/></g><g><path fill="#8d6c9f" d="M18.757,40.959c-0.611,0-1.221-0.025-1.827-0.075c-0.55-0.045-0.96-0.528-0.915-1.079 c0.045-0.55,0.516-0.963,1.079-0.915c1.255,0.104,2.528,0.089,3.787-0.042c0.558-0.057,1.041,0.342,1.098,0.891 c0.058,0.549-0.341,1.041-0.891,1.098C20.314,40.919,19.535,40.959,18.757,40.959z"/></g></svg>