<svg xmlns="http://www.w3.org/2000/svg" viewBox="0 0 128 128" width="100px" height="100px"><path fill="#F59191" d="M83.4,83.4L83.4,83.4c-14.8,14.8-38.7,14.8-53.5,0l-4.8-4.8c-14.8-14.8-14.8-38.7,0-53.5l0,0c14.8-14.8,38.7-14.8,53.5,0l4.8,4.8C98.2,44.7,98.2,68.6,83.4,83.4z"/><path fill="#D47277" d="M53.2 44.5A6.5 6.5 0 1 0 53.2 57.5A6.5 6.5 0 1 0 53.2 44.5Z"/><path fill="none" stroke="#454B54" stroke-linecap="round" stroke-linejoin="round" stroke-miterlimit="10" stroke-width="6" d="M83.4,83.4L83.4,83.4c-14.8,14.8-38.7,14.8-53.5,0l-4.8-4.8c-14.8-14.8-14.8-38.7,0-53.5l0,0c14.8-14.8,38.7-14.8,53.5,0l4.8,4.8C98.2,44.7,98.2,68.6,83.4,83.4z"/><path fill="#F1E8E1" d="M94.5,57.1L81.1,70.4L70.4,81.1L57.1,94.5c5.7-0.1,11.3-1.4,16.5-4c2.2-1.1,4.8-0.6,6.4,1.2l20.2,22.3l13.8-13.8L91.7,80c-1.8-1.6-2.3-4.3-1.2-6.4C93.1,68.4,94.4,62.7,94.5,57.1z"/><path fill="none" stroke="#454B54" stroke-linecap="round" stroke-linejoin="round" stroke-miterlimit="10" stroke-width="6" d="M57.1,94.5c5.7-0.1,11.3-1.4,16.5-4c2.2-1.1,4.8-0.6,6.4,1.2l20.2,22.3l13.8-13.8L91.7,80c-1.8-1.6-2.3-4.3-1.2-6.4c2.6-5.2,3.9-10.8,4-16.5"/><path fill="#FFF" d="M53.2 17.5A10.8 10.8 0 1 0 53.2 39.1A10.8 10.8 0 1 0 53.2 17.5Z"/></svg>