<svg xmlns="http://www.w3.org/2000/svg" width="100" height="100" viewBox="0 0 128 128"><path fill="#D3E09C" d="M64 19A45 45 0 1 0 64 109A45 45 0 1 0 64 19Z"/><path fill="none" stroke="#FFF" stroke-linecap="round" stroke-linejoin="round" stroke-miterlimit="10" stroke-width="6" d="M49,39c-2.5,0-4.9,0.4-7.1,1c-5.9,1.7-11.9,3-18,3.6c-6.5,12.8-6.5,28,0,40.8C30,85,36,86.2,41.9,88c2.3,0.7,4.6,1,7.1,1c13.8,0,25-11.2,25-25v0C74,50.2,62.8,39,49,39z"/><path fill="#FFF" d="M39.3,39.3c16.4-16.4,42.2-17.5,59.9-3.3c-1-1.3-2.1-2.5-3.3-3.7c-17.6-17.6-46.1-17.6-63.6,0c-17.6,17.6-17.6,46.1,0,63.6c1.2,1.2,2.4,2.3,3.7,3.3C21.8,81.5,22.9,55.6,39.3,39.3z"/><path fill="#95AD6E" d="M95.8,32.2c-1.2-1.2-2.4-2.3-3.7-3.3c14.1,17.7,11.7,44.9-3.3,59.9c-13.8,13.8-42.2,17.5-59.9,3.3c1,1.3,2.1,2.5,3.3,3.7c17.6,17.6,46.1,17.6,63.6,0C113.4,78.2,113.4,49.8,95.8,32.2z"/><path fill="none" stroke="#454B54" stroke-linecap="round" stroke-linejoin="round" stroke-miterlimit="10" stroke-width="6" d="M64 19A45 45 0 1 0 64 109A45 45 0 1 0 64 19Z"/></svg>