<svg xmlns="http://www.w3.org/2000/svg" width="100" height="100" viewBox="0 0 128 128"><path fill="#FFF" d="M64 19A45 45 0 1 0 64 109A45 45 0 1 0 64 19Z"/><path fill="#CBD0D8" d="M95.8,32.2c-1.2-1.2-2.4-2.3-3.7-3.3c14.1,17.7-11,47.6-13.3,49.9c-3.6,3.6-32.2,27.5-49.9,13.3c1,1.3,2.1,2.5,3.3,3.7c17.6,17.6,46.1,17.6,63.6,0C113.4,78.2,113.4,49.8,95.8,32.2z"/><path fill="#B3E1EA" d="M108.5,57.3C94.2,43.4,76.6,36,75.7,35.6l-6.2-2.6c-2.1,5.3-3.2,10.8-3.8,15.7l3.9,1.6c0.2,0.1,21.4,9,33.5,24.6l3.3,4.2C108.9,72.2,109.6,64.6,108.5,57.3z"/><path fill="#F7E6AC" d="M33.7,72l0.8,6.6c5.7-0.9,11-2.8,15.5-4.8L49.6,70c0-0.2-2.7-23.1,5.1-41.2l3.1-7.4L54.5,20c-5.7,1.2-11.3,3.6-16.3,7.1C31,48.1,33.6,70.9,33.7,72z"/><path fill="#B3E1EA" d="M91.6,85.5l-1.5-2.1c-3.3-3.6-6.9-6.6-10.3-9l-4.1,3c-0.2,0.1-18.8,13.8-38.3,16.2l-6.5,0.8c0.4,0.5,0.9,0.9,1.3,1.4c5.5,5.4,12,9.2,18.9,11.3c18.6-5.3,33.4-16.2,34.2-16.8L91.6,85.5z"/><path fill="#73B1B7" d="M109,62.6c0-0.9-0.1-1.7-0.1-2.6c0,0,0,0,0-0.1c-0.1-0.9-0.2-1.8-0.3-2.8c-4.1-4-8.4-7.4-12.6-10.3c-1,5.4-3.2,10.8-5.8,15.5c4.6,3.5,9.2,7.7,13,12.6l3.3,4.2l0,0c0.6-1.7,1.1-3.5,1.6-5.3c0-0.1,0-0.2,0.1-0.3c0.2-0.8,0.3-1.6,0.5-2.4c0-0.1,0-0.2,0-0.2c0.3-1.8,0.5-3.6,0.5-5.4c0-0.1,0-0.1,0-0.2c0-0.8,0-1.6,0-2.4C109,62.9,109,62.8,109,62.6z"/><path fill="none" stroke="#454B54" stroke-linecap="round" stroke-linejoin="round" stroke-miterlimit="10" stroke-width="6" d="M65.5 64.6C65 59.5 64 40.2 73.1 26l3.1-5.3M31.4 95C54.2 93.5 73 79 73.9 78.3l5.3-4.3M63.9 65.8C62.1 67.2 44.4 80 25.7 79.1l-4.2-.2M95.8 95.8c.5-.5 1.1-1.1 1.6-1.7l-.9-1.7c-.4-.8-.9-1.6-1.4-2.4l-3.4-4.5-6.4 4.8c-.2.1-17.7 13.1-36.7 15.9C64.5 112.1 83.1 108.6 95.8 95.8z"/><path fill="none" stroke="#454B54" stroke-linecap="round" stroke-linejoin="round" stroke-miterlimit="10" stroke-width="6" d="M65.6,65.9l0.1,0.6c2.6,1.1,22.1,9.7,30.8,26l0.9,1.7"/><path fill="none" stroke="#454B54" stroke-linecap="round" stroke-linejoin="round" stroke-miterlimit="10" stroke-width="6" d="M64 19A45 45 0 1 0 64 109A45 45 0 1 0 64 19Z"/></svg>